<?xml version="1.0" encoding="iso-8859-1"?>
<!-- Uploaded to: SVG Repo, www.svgrepo.com, Generator: SVG Repo Mixer Tools -->
<svg height="800px" width="800px" version="1.1" id="Layer_1" xmlns="http://www.w3.org/2000/svg" xmlns:xlink="http://www.w3.org/1999/xlink" 
	 viewBox="0 0 512 512" xml:space="preserve">
<polygon style="fill:#BF7447;" points="330.705,389.884 193.665,389.889 149.975,150.474 374.393,150.474 "/>
<polygon style="fill:#F9F0B5;" points="435.297,133.923 435.297,389.884 333.982,389.884 333.982,174.498 196.941,174.498 
	196.941,389.884 95.616,389.884 95.616,133.923 265.457,17.077 "/>
<polygon style="fill:#FFDD77;" points="434.204,90.233 434.204,133.923 264.365,51.482 94.524,133.923 94.524,90.233 264.365,7.792 
	"/>
<path style="fill:#FF9B5F;" d="M453.341,446.503c0,13.17-10.677,23.845-23.845,23.845H273.021v-47.692h156.474
	C442.664,422.656,453.341,433.332,453.341,446.503z"/>
<path style="fill:#FEBB8E;" d="M293.774,455.423h134.629c13.17,0,23.845,10.676,23.845,23.846c0,13.17-10.676,23.845-23.845,23.845
	l-150.337-0.133c-5.442-0.004-13.776-2.191-18.519-4.858l-152.962-94.458c-4.743-2.667-13.078-4.85-18.519-4.85H58.109v-95.369
	h51.334l97.754,39.976L293.774,455.423z"/>
<path style="fill:#FCD5A2;" d="M169.682,302.354c16.327,0,39.129,9.446,50.674,20.989l90.278,90.278
	c9.312,9.312,9.312,24.411,0,33.723c-9.312,9.312-24.411,9.312-33.723,0l-72.874-72.874h-21.415
	c-40.416,0-73.179-31.702-73.179-72.117L169.682,302.354L169.682,302.354z"/>
<path d="M446.544,471.775c-1.856,0-3.715-0.683-5.169-2.059c-3.016-2.854-3.146-7.614-0.291-10.631
	c2.879-3.041,4.465-7.025,4.465-11.217c0-9.003-7.324-16.326-16.326-16.326h-78.759c-4.154,0-7.52-3.366-7.52-7.52
	s3.366-7.52,7.52-7.52h78.759c17.295,0,31.365,14.07,31.365,31.365c0,8.054-3.048,15.71-8.583,21.557
	C450.527,470.986,448.537,471.775,446.544,471.775z"/>
<path d="M294.593,464.306c-8.378,0-16.256-3.263-22.18-9.186l-73.37-73.372c-2.937-2.938-2.937-7.698,0-10.635
	c2.937-2.936,7.698-2.936,10.634,0l73.371,73.372c6.364,6.366,16.724,6.368,23.088,0c6.366-6.365,6.366-16.723,0-23.088
	l-90.278-90.277c-10.184-10.184-30.955-18.787-45.357-18.787H58.928c-4.153,0-7.52-3.366-7.52-7.52s3.367-7.52,7.52-7.52h111.574
	c18.392,0,42.986,10.187,55.991,23.192l90.279,90.278c12.228,12.23,12.228,32.129,0,44.358
	C310.847,461.044,302.971,464.306,294.593,464.306z"/>
<path d="M429.223,512l-150.345-0.133c-6.762-0.006-16.306-2.51-22.198-5.824c-0.089-0.05-0.177-0.102-0.265-0.156l-152.82-94.369
	c-3.65-2.006-10.611-3.817-14.714-3.817H58.928c-4.153,0-7.52-3.366-7.52-7.52c0-4.154,3.367-7.52,7.52-7.52h29.954
	c6.764,0,16.311,2.5,22.205,5.814c0.089,0.05,0.178,0.102,0.266,0.156l152.819,94.37c3.653,2.007,10.615,3.822,14.72,3.825
	l150.337,0.133c8.996,0,16.319-7.324,16.319-16.326c0-9.003-7.324-16.327-16.326-16.327H294.594c-4.154,0-7.52-3.366-7.52-7.52
	s3.366-7.52,7.52-7.52h134.629c17.295,0,31.365,14.071,31.365,31.366S446.519,512,429.223,512z"/>
<path d="M453.064,105.703c-1.102,0-2.22-0.243-3.278-0.756L266.28,15.879L82.776,104.946c-3.736,1.814-8.235,0.256-10.048-3.481
	c-1.814-3.737-0.255-8.235,3.481-10.048L262.997,0.755c2.071-1.007,4.493-1.007,6.567,0l186.789,90.661
	c3.737,1.814,5.295,6.312,3.482,10.048C458.534,104.144,455.854,105.703,453.064,105.703z"/>
<path d="M436.121,398.775h-101.32c-4.154,0-7.52-3.366-7.52-7.52V181.203H205.28v95.099c0,4.154-3.367,7.52-7.52,7.52
	s-7.52-3.366-7.52-7.52V173.684c0-4.153,3.367-7.52,7.52-7.52h137.041c4.154,0,7.52,3.367,7.52,7.52v210.052h86.282V89.956
	c0-4.153,3.366-7.52,7.52-7.52s7.52,3.367,7.52,7.52v301.299C443.641,395.409,440.275,398.775,436.121,398.775z"/>
<path d="M96.439,279.565c-4.153,0-7.52-3.366-7.52-7.52V89.956c0-4.153,3.367-7.52,7.52-7.52s7.52,3.367,7.52,7.52v182.09
	C103.959,276.199,100.593,279.565,96.439,279.565z"/>
<path d="M351.201,56.258c-4.154,0-7.52-3.367-7.52-7.52V7.52c0-4.153,3.366-7.52,7.52-7.52c4.154,0,7.52,3.367,7.52,7.52v41.219
	C358.721,52.891,355.355,56.258,351.201,56.258z"/>
</svg>